<svg width="64" height="64" viewBox="0 0 64 64" fill="none" xmlns="http://www.w3.org/2000/svg">
<path fill-rule="evenodd" clip-rule="evenodd" d="M12.2168 19.1807L32 9.55192V0C23.8125 0 15.6626 6.89316 12.2168 19.1807Z" fill="#1EC4C4"/>
<path fill-rule="evenodd" clip-rule="evenodd" d="M51.7832 19.1807L32 9.55192V0C40.1875 0 48.3374 6.89316 51.7832 19.1807Z" fill="#107070"/>
<path fill-rule="evenodd" clip-rule="evenodd" d="M13.2275 42.8477C15.9463 50.2603 15.5372 58.6942 12 64H27.2051L13.2275 42.8477Z" fill="#1EC4C4"/>
<path fill-rule="evenodd" clip-rule="evenodd" d="M50.7725 42.8477C48.0537 50.2603 48.4628 58.6942 52 64H36.7949L50.7725 42.8477Z" fill="#107070"/>
<path fill-rule="evenodd" clip-rule="evenodd" d="M32 16.2246V60.3726L54.074 26.9686L32 16.2246Z" fill="#107070"/>
<path fill-rule="evenodd" clip-rule="evenodd" d="M31.9998 16.2246L9.92578 26.9686L31.9998 60.3726V16.2246Z" fill="#1EC4C4"/>
</svg>
