<svg width="159" height="32" viewBox="0 0 159 32" fill="none" xmlns="http://www.w3.org/2000/svg">
<path d="M39.9775 27V5H48.439C49.7651 5 50.9438 5.26191 51.9752 5.78572C53.0276 6.28857 53.859 7.01143 54.4694 7.95429C55.0798 8.89714 55.385 10.039 55.385 11.38V11.7886C55.385 13.1086 55.0693 14.2505 54.4379 15.2143C53.8275 16.1571 52.996 16.88 51.9436 17.3829C50.8912 17.8857 49.723 18.1371 48.439 18.1371H42.6296V27H39.9775ZM42.6296 15.7486H48.1549C49.5651 15.7486 50.6807 15.4029 51.5016 14.7114C52.3225 13.999 52.7329 13.0038 52.7329 11.7257V11.4114C52.7329 10.1333 52.3225 9.14857 51.5016 8.45714C50.7017 7.74476 49.5862 7.38857 48.1549 7.38857H42.6296V15.7486Z" fill="#20E2E2"/>
<path d="M55.4149 27L62.2346 5H66.9074L73.7271 27H70.9803L69.2753 21.4371H59.8666L58.1617 27H55.4149ZM60.5297 19.0486H68.5807L64.792 6.60286H64.35L60.5297 19.0486Z" fill="#20E2E2"/>
<path d="M77.0385 27V5H79.6906V24.6114H90.8674V27H77.0385Z" fill="#20E2E2"/>
<path d="M92.5375 27L99.3572 5H104.03L110.85 27H108.103L106.398 21.4371H96.9893L95.2844 27H92.5375ZM97.6523 19.0486H105.703L101.915 6.60286H101.473L97.6523 19.0486Z" fill="#20E2E2"/>
<path d="M113.119 27V24.6429H116.213V7.35714H113.119V5H121.739C124.643 5 126.885 5.73333 128.464 7.2C130.063 8.66667 130.863 10.919 130.863 13.9571V18.0429C130.863 21.1019 130.063 23.3648 128.464 24.8314C126.885 26.2771 124.643 27 121.739 27H113.119ZM118.866 24.6114H121.739C123.886 24.6114 125.506 24.0876 126.601 23.04C127.695 21.9924 128.243 20.3686 128.243 18.1686V13.8629C128.243 11.621 127.695 9.98667 126.601 8.96C125.506 7.93333 123.886 7.42 121.739 7.42H118.866V24.6114Z" fill="#20E2E2"/>
<path d="M135.097 27V5H137.749V27H135.097Z" fill="#20E2E2"/>
<path d="M142.805 27V5H147.951L155.655 25.3343H156.065V5H158.686V27H153.54L145.867 6.63429H145.425V27H142.805Z" fill="#20E2E2"/>
<path fill-rule="evenodd" clip-rule="evenodd" d="M6.1084 9.59033L16 4.77596V0C11.9062 0 7.83132 3.44658 6.1084 9.59033Z" fill="#107070"/>
<path fill-rule="evenodd" clip-rule="evenodd" d="M25.8916 9.59033L16 4.77596V0C20.0938 0 24.1687 3.44658 25.8916 9.59033Z" fill="#20E2E2"/>
<path fill-rule="evenodd" clip-rule="evenodd" d="M6.61374 21.4236C7.97316 25.1299 7.76858 29.3468 6 31.9998H13.6025L6.61374 21.4236Z" fill="#107070"/>
<path fill-rule="evenodd" clip-rule="evenodd" d="M25.3863 21.4236C24.0268 25.1299 24.2314 29.3468 26 31.9998H18.3975L25.3863 21.4236Z" fill="#20E2E2"/>
<path fill-rule="evenodd" clip-rule="evenodd" d="M16 8.1123V30.1863L27.037 13.4843L16 8.1123Z" fill="#20E2E2"/>
<path fill-rule="evenodd" clip-rule="evenodd" d="M15.9999 8.1123L4.96289 13.4843L15.9999 30.1863V8.1123Z" fill="#107070"/>
</svg>
